<svg xmlns="http://www.w3.org/2000/svg" enable-background="new 0 0 512 512" version="1" viewBox="0 0 512 512"><path fill="#E586FF" d="M93.867,12.801h324.267c51.733,0,93.867,42.133,93.867,93.867v311.467
			c0,51.733-42.133,93.867-93.867,93.867H93.867c-51.733,0-93.867-42.133-93.867-93.867V106.668
			C0.001,54.934,42.134,12.801,93.867,12.801"/><path fill="#210027" d="M98.133,34.134h315.733c42.667,0,76.8,34.133,76.8,76.8v302.933c0,42.667-34.133,76.8-76.8,76.8H98.133
			c-42.667,0-76.8-34.133-76.8-76.8V110.934C21.333,68.268,55.466,34.134,98.133,34.134"/><path fill="#FFF" d="M129.061,148.185c0-1.693,0-2.539,1.693-2.539c13.542-0.846,33.854-0.846,54.166-0.846
			c58.187,0,83.789,32.161,83.789,73.632c0,54.166-38.932,77.018-86.328,77.018h-15.869v81.25c0.19,1.212-0.638,2.349-1.851,2.539
			c-0.228,0.036-0.46,0.036-0.688,0H131.6c-1.212,0.19-2.349-0.638-2.539-1.851c-0.036-0.228-0.036-0.46,0-0.688V148.185z
			 M167.147,260.75h16.927c24.544,0,48.242-8.463,48.242-42.317c0-27.083-16.927-40.625-44.857-40.625
			c-6.782-0.241-13.573,0.042-20.312,0.846V260.75z M302.563,241.284c0-2.539,0-8.463-0.846-20.312c0-1.693,0-1.693,1.693-2.539
			c24.593-9.407,50.687-14.282,77.018-14.388c1.693,0,2.539,0,2.539,1.693v30.469c0,1.693-0.846,1.693-2.539,1.693
			c-13.401-0.735-26.832,0.694-39.778,4.232v132.877c0.19,1.212-0.638,2.349-1.851,2.539c-0.228,0.036-0.46,0.036-0.688,0h-33.008
			c-1.212,0.19-2.349-0.638-2.539-1.851c-0.036-0.228-0.036-0.46,0-0.688V241.284z"/><path fill="#E889FF" d="M129.061,148.185c0-1.693,0-2.539,1.693-2.539c13.542-0.846,33.854-0.846,54.166-0.846
				c58.187,0,83.789,32.161,83.789,73.632c0,54.166-38.932,77.018-86.328,77.018h-15.869v81.25c0.19,1.212-0.638,2.349-1.851,2.539
				c-0.228,0.036-0.46,0.036-0.688,0H131.6c-1.212,0.19-2.349-0.638-2.539-1.851c-0.036-0.228-0.036-0.46,0-0.688V148.185z
				 M167.147,260.75h16.927c24.544,0,48.242-8.463,48.242-42.317c0-27.083-16.927-40.625-44.857-40.625
				c-6.782-0.241-13.573,0.042-20.312,0.846V260.75z M302.563,241.284c0-2.539,0-8.463-0.846-20.312c0-1.693,0-1.693,1.693-2.539
				c24.593-9.407,50.687-14.282,77.018-14.388c1.693,0,2.539,0,2.539,1.693v30.469c0,1.693-0.846,1.693-2.539,1.693
				c-13.401-0.735-26.832,0.694-39.778,4.232v132.877c0.19,1.212-0.638,2.349-1.851,2.539c-0.228,0.036-0.46,0.036-0.688,0h-33.008
				c-1.212,0.19-2.349-0.638-2.539-1.851c-0.036-0.228-0.036-0.46,0-0.688V241.284z" opacity=".15"/></svg>