<svg xmlns="http://www.w3.org/2000/svg" enable-background="new 0 0 512 512" version="1" viewBox="0 0 512 512"><path fill="#D291FF" d="M93.867,12.801h324.267c51.733,0,93.867,42.133,93.867,93.867v311.467
			c0,51.733-42.133,93.867-93.867,93.867H93.867c-51.733,0-93.867-42.133-93.867-93.867V106.668
			C0.001,54.934,42.134,12.801,93.867,12.801"/><path fill="#1F0040" d="M98.133,34.134h315.733c42.667,0,76.8,34.133,76.8,76.8v302.933c0,42.667-34.133,76.8-76.8,76.8H98.133
			c-42.667,0-76.8-34.133-76.8-76.8V110.934C21.333,68.268,55.466,34.134,98.133,34.134"/><path fill="#FFF" d="M148.877,312.465l-16.978,63.666c0,1.698-0.849,2.547-3.396,2.547H97.095
			c-1.698,0-2.547-0.849-1.698-3.396l60.27-210.522c1.325-5.557,1.896-11.268,1.698-16.978c0-1.698,0.849-1.698,1.698-1.698
			l44.142,0c1.698,0,1.698,0,2.547,1.698l67.91,228.137c0,1.698,0,2.547-1.698,2.547h-34.804c-1.33-0.024-2.578-0.648-3.396-1.698
			l-16.978-64.303L148.877,312.465z M208.299,278.51c-5.942-23.769-20.373-74.701-25.466-100.168l0,0
			c-4.244,24.618-15.917,67.062-24.618,100.168L208.299,278.51z M322.049,299.732c0,28.862,14.431,48.386,45.84,48.386
			c11.893,0.351,23.714-1.97,34.592-6.791c1.698-0.849,2.547,0,2.547,1.698v26.527c-0.031,1.574-0.634,3.083-1.698,4.244
			c-11.035,5.942-25.466,7.64-42.444,7.64c-56.026,0-77.248-41.595-77.248-87.435c0-50.084,26.528-90.83,71.306-90.83
			c45.84,0,61.968,39.048,61.968,70.457c0.154,7.395-0.415,14.787-1.698,22.071c-0.054,1.149-0.973,2.069-2.122,2.122
			c-11.829,1.408-23.743,1.976-35.653,1.698L322.049,299.732z M365.341,270.87h15.917v-3.396c0-12.097-5.73-33.319-27.801-33.319
			c-20.373,0-28.862,17.826-31.409,36.502L365.341,270.87z"/><path fill="#D291FF" d="M148.877,312.465l-16.978,63.666c0,1.698-0.849,2.547-3.396,2.547H97.095
				c-1.698,0-2.547-0.849-1.698-3.396l60.27-210.522c1.325-5.557,1.896-11.268,1.698-16.978c0-1.698,0.849-1.698,1.698-1.698
				l44.142,0c1.698,0,1.698,0,2.547,1.698l67.91,228.137c0,1.698,0,2.547-1.698,2.547h-34.804c-1.33-0.024-2.578-0.648-3.396-1.698
				l-16.978-64.303L148.877,312.465z M208.299,278.51c-5.942-23.769-20.373-74.701-25.466-100.168l0,0
				c-4.244,24.618-15.917,67.062-24.618,100.168L208.299,278.51z M322.049,299.732c0,28.862,14.431,48.386,45.84,48.386
				c11.893,0.351,23.714-1.97,34.592-6.791c1.698-0.849,2.547,0,2.547,1.698v26.527c-0.031,1.574-0.634,3.083-1.698,4.244
				c-11.035,5.942-25.466,7.64-42.444,7.64c-56.026,0-77.248-41.595-77.248-87.435c0-50.084,26.528-90.83,71.306-90.83
				c45.84,0,61.968,39.048,61.968,70.457c0.154,7.395-0.415,14.787-1.698,22.071c-0.054,1.149-0.973,2.069-2.122,2.122
				c-11.829,1.408-23.743,1.976-35.653,1.698L322.049,299.732z M365.341,270.87h15.917v-3.396c0-12.097-5.73-33.319-27.801-33.319
				c-20.373,0-28.862,17.826-31.409,36.502L365.341,270.87z" opacity=".15"/></svg>