<svg xmlns="http://www.w3.org/2000/svg" enable-background="new 0 0 24 24" viewBox="0 0 24 24"><path fill="#209237" d="M22.5,18V6L12,0L1.5,6v12L12,24L22.5,18L22.5,18z M8.636,16.589c0,0.722-0.576,1.29-1.286,1.29H7.273c-0.728,0-1.303-0.6-1.303-1.29V7.41c0-0.705,0.636-1.29,1.515-1.29c0.652,0,1.394,0.255,1.849,0.81l6.03,7.141V7.41c0-0.721,0.606-1.29,1.303-1.29h0.076c0.727,0,1.303,0.6,1.303,1.29v9.18h0.015c0,0.705-0.652,1.29-1.544,1.29c-0.637,0-1.365-0.255-1.819-0.809L8.636,9.929V16.589L8.636,16.589z"/><path fill="#DEDEDE" d="M7.485,6.12c-0.879,0-1.515,0.585-1.515,1.29v9.179c0,0.69,0.575,1.29,1.303,1.29H7.35c0.711,0,1.286-0.568,1.286-1.29v-6.66L12,13.892v-3.805L9.334,6.93C8.879,6.375,8.137,6.12,7.485,6.12L7.485,6.12z"/><path fill="#1C7F30" d="M12,0L1.5,6v12L12,24V13.892L8.636,9.929v6.66c0,0.722-0.576,1.29-1.286,1.29H7.273c-0.728,0-1.303-0.6-1.303-1.29V7.41c0-0.705,0.636-1.29,1.515-1.29c0.652,0,1.394,0.255,1.849,0.81L12,10.087V0L12,0z"/></svg>